<svg version="1.2" xmlns="http://www.w3.org/2000/svg" viewBox="0 0 4500 4500" width="4500" height="4500">
	<title>pxl_9_stlzd_mcp_03</title>
	<defs>
		<clipPath clipPathUnits="userSpaceOnUse" id="cp1">
			<path d="m2593.48 1625.07l-648.08 2418.67c-25.16 93.9-113.79 130.6-197.97 82l-803.67-464c-84.18-48.6-132.03-164.1-106.87-258l648.08-2418.67c25.16-93.89 113.79-130.61 197.97-82.01l803.68 464c84.18 48.6 132.02 164.12 106.86 258.01zm-522.16-439.78c-22-12.7-45.17-3.11-51.74 21.43-6.58 24.54 5.93 54.73 27.93 67.44 22 12.7 45.17 3.1 51.74-21.44 6.58-24.54-5.93-54.73-27.93-67.43z"/>
		</clipPath>
	</defs>
	<style>
		.s0 { fill: #eaeaea } 
	</style>
	<g id="smart object">
		<g clip-path="url(#cp1)">
			<path id="screen mask" fill-rule="evenodd" class="s0" d="m2593.48 1625.07l-648.08 2418.67c-25.16 93.9-113.79 130.6-197.97 82l-803.67-464c-84.18-48.6-132.03-164.1-106.87-258l648.08-2418.67c25.16-93.89 113.79-130.61 197.97-82.01l803.68 464c84.18 48.6 132.02 164.12 106.86 258.01zm-522.16-439.78c-22-12.7-45.17-3.11-51.74 21.43-6.58 24.54 5.93 54.73 27.93 67.44 22 12.7 45.17 3.1 51.74-21.44 6.58-24.54-5.93-54.73-27.93-67.43z"/>
		</g>
	</g>
</svg>